#N canvas 61 185 1280 648 10;
#X obj 860 203 +bubbler~;
#X floatatom 108 161 10 1 10000 0 - - -;
#X floatatom 247 219 10 20 20000 0 - - -;
#X msg 108 359 time \$1;
#X floatatom 107 220 5 0 200 0 - - -;
#X msg 389 359 density \$1;
#X obj 111 142 hsl 128 15 1 10000 0 0 empty empty empty -2 -8 0 10
-228856 -1 -1 634 1;
#X floatatom 248 161 5 0 200 0 - - -;
#X obj 251 142 hsl 128 15 0 200 0 1 empty bub_initfeedback empty -2
-8 0 10 -228856 -1 -1 3334 1;
#X obj 250 201 hsl 128 15 20 20000 0 0 empty bub_initfilterFreq empty
-2 -8 0 10 -228856 -1 -1 12700 1;
#X obj 110 201 hsl 128 15 0 200 0 1 empty bub_initdensity empty -2
-8 0 10 -228856 -1 -1 4445 1;
#X msg 529 358 filterFreq \$1;
#X msg 248 360 feedback \$1;
#X obj 816 442 loadbang;
#X msg 1021 491 grainStartVariation 50;
#X obj 896 535 s \$0-bub;
#X obj 906 164 r \$0-bub;
#X text 106 125 tiempo;
#X text 245 125 feedback;
#X text 107 184 densidad;
#X text 244 183 filtro;
#X obj 209 464 s \$0-bub;
#X obj 860 -8 inlet~;
#X obj 861 303 outlet~;
#X msg 816 492 timeVariation 50;
#X msg 935 492 grainSize 50;
#X obj 258 80 * 200;
#X obj 54 78 maxlib/scale 0 1 1 10000;
#X obj 305 80 maxlib/scale 0 1 20 20000;
#X msg 95 29 500;
#X obj 95 4 loadbang;
#X obj 437 119 maxlib/scale 0 1 40 90;
#X obj 258 40 r Xmano1;
#X obj 201 24 r Ymano1;
#X connect 0 0 23 0;
#X connect 1 0 3 0;
#X connect 2 0 11 0;
#X connect 3 0 21 0;
#X connect 4 0 5 0;
#X connect 5 0 21 0;
#X connect 6 0 1 0;
#X connect 7 0 12 0;
#X connect 8 0 7 0;
#X connect 9 0 2 0;
#X connect 10 0 4 0;
#X connect 11 0 21 0;
#X connect 12 0 21 0;
#X connect 13 0 24 0;
#X connect 13 0 25 0;
#X connect 13 0 14 0;
#X connect 14 0 15 0;
#X connect 16 0 0 0;
#X connect 22 0 0 0;
#X connect 24 0 15 0;
#X connect 25 0 15 0;
#X connect 26 0 10 0;
#X connect 27 0 6 0;
#X connect 28 0 9 0;
#X connect 29 0 6 0;
#X connect 30 0 29 0;
#X connect 31 0 8 0;
#X connect 32 0 26 0;
#X connect 33 0 31 0;
#X coords 0 -1 1 1 300 140 1 100 100;
