#N canvas 235 107 1311 519 10;
#X declare -lib mrpeach;
#X obj 159 566 multiplex~ 1 2 3 4;
#X obj 21 543 r escena;
#X floatatom 21 570 5 0 0 0 - - -;
#N canvas 234 76 1189 599 ESCENA0 1;
#X obj 200 403 Phaser-fluidos;
#X text 119 216 FIGURA;
#X text 509 199 FONDO;
#X obj 575 606 outlet~ FONDO;
#X obj 88 14 inlet PresenciaMano;
#X obj 118 549 line~;
#X obj 209 579 *~;
#X obj 575 563 *~;
#X obj 593 110 loadbang;
#X obj 173 217 sfplayer-mpps;
#N canvas 546 167 450 300 change-fade 0;
#X obj 36 53 route 1;
#X msg 14 118 1 1000;
#X msg 62 118 0 1000;
#X obj 41 32 change;
#X obj 29 83 bng 15 250 50 0 empty empty empty 17 7 0 10 -262144 -1
-1;
#X obj 71 82 bng 15 250 50 0 empty empty empty 17 7 0 10 -262144 -1
-1;
#X obj 41 8 inlet;
#X obj 38 217 outlet;
#X connect 0 0 4 0;
#X connect 0 1 5 0;
#X connect 1 0 7 0;
#X connect 2 0 7 0;
#X connect 3 0 0 0;
#X connect 4 0 1 0;
#X connect 5 0 2 0;
#X connect 6 0 3 0;
#X restore 145 53 pd change-fade;
#X obj 145 81 s fade-escena0;
#X obj 118 520 r fade-escena0;
#X text -13 473 ------------------------------------------------------------
;
#X obj 350 15 inlet Xmano1;
#X obj 437 14 inlet Ymano1;
#X obj 645 13 inlet Ymano2;
#X obj 544 13 inlet Xmano2;
#X obj 330 62 s Escena0-Xmano1;
#X obj 435 61 s Escena0-Ymano1;
#X obj 542 60 s Escena0-Xmano2;
#X obj 645 60 s Escena0-Ymano2;
#X obj 234 349 r Escena0-Xmano1;
#X obj 339 348 r Escena0-Ymano1;
#X obj 446 346 r Escena0-Ymano2;
#X obj 172 267 s~ FiguraEscena0;
#X obj 568 224 s~ FondoEscena0;
#X obj 131 349 r~ FiguraEscena0;
#X obj 573 520 r~ FondoEscena0;
#X text 347 473 ------------------------------------------------------------
;
#X text 708 473 ------------------------------------------------------------
;
#X text -9 278 ------------------------------------------------------------
;
#X text 351 278 ------------------------------------------------------------
;
#X text 712 278 ------------------------------------------------------------
;
#N canvas 164 155 722 524 stereo 0;
#X obj 450 222 sin;
#X obj 325 222 cos;
#X floatatom 393 182 8 0 90 0 - - -;
#X text 392 8 ángulo en grados (0-90);
#X text 493 182 ángulo en radianes (0-pi/2);
#X obj 89 215 *~;
#X obj 172 215 *~;
#X floatatom 326 255 4 0 90 0 - - -;
#X floatatom 451 255 4 0 90 0 - - -;
#X obj 393 137 * 0.0174533;
#X obj 326 310 vsl 15 100 0 1 0 0 empty empty empty 0 -9 0 10 -262144
-1 -1 7000 1;
#X obj 451 310 vsl 15 100 0 1 0 0 empty empty empty 0 -9 0 10 -262144
-1 -1 7000 1;
#X text 511 135 (angulo*2PI)/360;
#X obj 94 421 outlet~;
#X obj 197 421 outlet~;
#X obj 110 53 inlet~;
#X obj 393 38 inlet;
#X obj 393 94 * 90;
#X obj 484 60 loadbang;
#X msg 459 84 0.5;
#X connect 0 0 8 0;
#X connect 1 0 7 0;
#X connect 2 0 0 0;
#X connect 2 0 1 0;
#X connect 5 0 13 0;
#X connect 6 0 14 0;
#X connect 7 0 5 1;
#X connect 7 0 10 0;
#X connect 8 0 6 1;
#X connect 8 0 11 0;
#X connect 9 0 2 0;
#X connect 15 0 5 0;
#X connect 15 0 6 0;
#X connect 16 0 17 0;
#X connect 17 0 9 0;
#X connect 18 0 19 0;
#X connect 19 0 17 0;
#X restore 344 421 pd stereo;
#X obj 238 454 s~ FiguraProEscena0Izq;
#X obj 377 453 s~ FiguraProEscena0Der;
#X obj 214 519 r~ FiguraProEscena0Izq;
#X obj 374 518 r~ FiguraProEscena0Der;
#X obj 357 578 *~;
#X obj 207 611 outlet~ FIGURAIzq;
#X obj 358 612 outlet~ FIGURADer;
#X obj 110 418 hip~ 3000;
#X msg 415 170 FONDO-ESCENA0/FONDOESCENA0.wav;
#X msg 221 190 1;
#X msg -39 198 FIGURA-ESCENA0/FIGURAESCENA0-1.wav;
#X obj 329 248 bng 15 250 50 0 empty empty empty 17 7 0 10 -262144
-1 -1;
#X obj 565 198 sfplayer-mpps;
#X obj 90 132 loadbang;
#X obj 90 152 t b b;
#X obj 591 137 t b b;
#X msg 612 168 1;
#X obj 211 242 *~ 1;
#X connect 0 0 42 0;
#X connect 4 0 10 0;
#X connect 5 0 6 1;
#X connect 5 0 7 1;
#X connect 5 0 39 1;
#X connect 6 0 40 0;
#X connect 7 0 3 0;
#X connect 8 0 50 0;
#X connect 9 0 52 0;
#X connect 9 2 46 0;
#X connect 10 0 11 0;
#X connect 12 0 5 0;
#X connect 14 0 18 0;
#X connect 15 0 19 0;
#X connect 16 0 21 0;
#X connect 17 0 20 0;
#X connect 22 0 0 1;
#X connect 22 0 34 1;
#X connect 23 0 0 2;
#X connect 24 0 0 3;
#X connect 27 0 0 0;
#X connect 28 0 7 0;
#X connect 34 0 35 0;
#X connect 34 1 36 0;
#X connect 37 0 6 0;
#X connect 38 0 39 0;
#X connect 39 0 41 0;
#X connect 42 0 34 0;
#X connect 43 0 47 0;
#X connect 44 0 9 1;
#X connect 45 0 9 0;
#X connect 47 0 26 0;
#X connect 48 0 49 0;
#X connect 49 0 44 0;
#X connect 49 1 45 0;
#X connect 50 0 51 0;
#X connect 50 1 43 0;
#X connect 51 0 47 1;
#X connect 52 0 25 0;
#X restore -67 405 pd ESCENA0 . . . . . . . . . . . . . . . . . . .
;
#X obj -67 296 r mano1;
#X obj -59 318 r Xmano1-escena0;
#X obj -17 339 r Ymano1-escena0;
#X obj 136 381 r Ymano2-escena0;
#X obj 60 360 r Xmano2-escena0;
#X obj 218 435 s~ ESCENA0-FONDO;
#X obj 386 294 r mano1;
#X obj 394 316 r Xmano1-escena2;
#X obj 436 337 r Ymano1-escena2;
#X obj 513 358 r Xmano2-escena2;
#X obj 589 379 r Ymano2-escena2;
#X obj 671 433 s~ ESCENA2-FONDO;
#N canvas 134 22 1189 599 ESCENA2 0;
#X text 119 266 FIGURA;
#X text 509 199 FONDO;
#X obj 643 624 outlet~ FONDO;
#X obj 88 14 inlet PresenciaMano;
#X obj 118 549 line~;
#X obj 207 566 *~;
#X obj 643 581 *~;
#N canvas 546 167 450 300 change-fade 0;
#X obj 36 53 route 1;
#X msg 14 118 1 1000;
#X msg 62 118 0 1000;
#X obj 41 32 change;
#X obj 29 83 bng 15 250 50 0 empty empty empty 17 7 0 10 -262144 -1
-1;
#X obj 71 82 bng 15 250 50 0 empty empty empty 17 7 0 10 -262144 -1
-1;
#X obj 41 8 inlet;
#X obj 38 217 outlet;
#X connect 0 0 4 0;
#X connect 0 1 5 0;
#X connect 1 0 7 0;
#X connect 2 0 7 0;
#X connect 3 0 0 0;
#X connect 4 0 1 0;
#X connect 5 0 2 0;
#X connect 6 0 3 0;
#X restore 145 53 pd change-fade;
#X text -13 473 ------------------------------------------------------------
;
#X obj 437 14 inlet Ymano1;
#X obj 645 13 inlet Ymano2;
#X obj 544 13 inlet Xmano2;
#X text 347 473 ------------------------------------------------------------
;
#X text 708 473 ------------------------------------------------------------
;
#X text -10 321 ------------------------------------------------------------
;
#X text 350 321 ------------------------------------------------------------
;
#X text 711 321 ------------------------------------------------------------
;
#X obj 145 81 s fade-escena2;
#X obj 350 15 inlet Xmano1;
#X obj 330 62 s Escena2-Xmano1;
#X obj 435 61 s Escena2-Ymano1;
#X obj 542 60 s Escena2-Xmano2;
#X obj 645 60 s Escena2-Ymano2;
#X obj 173 296 s~ FiguraEscena2;
#X obj 590 247 s~ FondoEscena2;
#X obj 131 349 r~ FiguraEscena2;
#X obj 234 349 r Escena2-Xmano1;
#X obj 339 348 r Escena2-Ymano1;
#X obj 446 346 r Escena2-Ymano2;
#X obj 118 520 r fade-escena2;
#X obj 641 538 r~ FondoEscena2;
#N canvas 228 22 1009 599 granulador 0;
#X floatatom 25 88 10 1 10000 0 - - -;
#X floatatom 23 207 10 20 20000 0 - - -;
#X floatatom 414 206 5 0 100 0 - - -;
#X msg 25 106 time \$1;
#X msg 414 227 resonance \$1;
#X floatatom 225 88 5 0 100 0 - - -;
#X msg 795 148 just;
#X msg 847 148 12tet;
#X obj 23 245 s bub;
#X obj 25 126 s bub;
#X obj 795 181 s bub;
#X floatatom 22 324 5 0 200 0 - - -;
#X floatatom 413 323 5 0 100 0 - - -;
#X obj 22 362 s bub;
#X floatatom 222 324 5 0 50 0 - - -;
#X msg 22 342 density \$1;
#X floatatom 422 429 5 0 100 0 - - -;
#X obj 24 468 s bub;
#X msg 24 448 octave \$1;
#X msg 225 108 timeVariation \$1;
#X msg 222 344 grainSize \$1;
#X msg 413 344 grainStartVariation \$1;
#X msg 422 450 grainReversal \$1;
#X msg 224 450 octaveVariation \$1;
#X obj 28 69 hsl 128 15 1 10000 1 0 empty bub_inittime empty -2 -8
0 10 -228856 -1 -1 9272 1;
#X floatatom 223 208 5 0 200 0 - - -;
#X obj 226 189 hsl 128 15 0 200 0 0 empty bub_initfb empty -2 -8 0
10 -228856 -1 -1 0 1;
#X obj 228 69 hsl 128 15 0 100 0 0 empty bub_inittimevar empty -2 -8
0 10 -228856 -1 -1 6350 1;
#X obj 26 189 hsl 128 15 20 20000 1 0 empty bub_initfilterFreq empty
-2 -8 0 10 -228856 -1 -1 12700 1;
#X obj 417 187 hsl 128 15 1 100 0 0 empty bub_initres empty -2 -8 0
10 -228856 -1 -1 6286 1;
#X obj 225 305 hsl 128 15 0 50 0 0 empty bub_initgrainsize empty -2
-8 0 10 -228856 -1 -1 2540 1;
#X obj 25 305 hsl 128 15 0 200 0 0 empty bub_initdensity empty -2 -8
0 10 -228856 -1 -1 5080 1;
#X obj 416 304 hsl 128 15 0 100 0 0 empty bub_initgvar empty -2 -8
0 10 -228856 -1 -1 0 1;
#X obj 425 410 hsl 128 15 0 100 0 0 empty bub_initgrev empty -2 -8
0 10 -228856 -1 -1 0 1;
#X msg 23 225 filterFreq \$1;
#X msg 223 227 feedback \$1;
#X obj 696 148 notein;
#X text 223 49 0 - 100%;
#X text 222 171 0 - 200%;
#X text 413 169 0 - 100%;
#X text 21 287 0 - 200%;
#X text 223 286 0 - 50%;
#X text 414 284 0 - 100%;
#X text 423 392 0 - 100%;
#X text 24 50 1 - 10000 ms (log);
#X text 20 172 20 - 20kHz (log);
#X obj 690 365 hsl 128 15 0 100 0 0 bub_delvol bub_initdelvol empty
-2 -8 0 10 -228856 -1 -1 12700 1;
#X obj 690 312 hsl 128 15 0 100 0 0 bub_dryvol bub_initdryvol empty
-2 -8 0 10 -228856 -1 -1 0 1;
#X text 686 344 Delay Volume (dB);
#X text 686 291 Dry Volume (dB);
#X obj 696 181 pack f f;
#X obj 24 408 hradio 15 1 0 9 empty bub_initoct empty 0 -8 0 10 -262144
-1 -1 4;
#X obj 24 426 - 4;
#N canvas 215 84 696 653 init 0;
#X msg 399 160 20000;
#X msg 85 356 0;
#X msg 462 130 832.6;
#X msg 509 61 50;
#X obj 115 509 s bub_initfb;
#X obj 115 463 s bub_initoctave;
#X obj 115 486 s bub_initoctvari;
#X obj 115 440 s bub_initgvar;
#X obj 115 417 s bub_initgrev;
#X msg 249 264 80;
#X msg 302 231 10;
#X obj 462 153 s bub_inittime;
#X obj 400 183 s bub_initfilterFreq;
#X obj 529 88 s bub_initres;
#X obj 529 112 s bub_inittimevar;
#X obj 302 256 s bub_initgrainsize;
#X obj 249 289 s bub_initdensity;
#X msg 355 197 1;
#X obj 355 222 s bub_but0;
#X msg 146 326 100;
#X msg 31 553 \; pd dsp 1 \;;
#X obj 31 -8 loadbang;
#X obj 31 15 t b b b b b b b b b b;
#X obj 146 353 s bub_initdelvol;
#X obj 189 318 s bub_initdryvol;
#X msg 189 291 0;
#X obj 566 42 s bub_initoct;
#X msg 566 19 4;
#X connect 0 0 12 0;
#X connect 1 0 4 0;
#X connect 1 0 5 0;
#X connect 1 0 6 0;
#X connect 1 0 7 0;
#X connect 1 0 8 0;
#X connect 2 0 11 0;
#X connect 3 0 13 0;
#X connect 3 0 14 0;
#X connect 9 0 16 0;
#X connect 10 0 15 0;
#X connect 17 0 18 0;
#X connect 19 0 23 0;
#X connect 21 0 22 0;
#X connect 22 0 20 0;
#X connect 22 1 1 0;
#X connect 22 2 19 0;
#X connect 22 2 25 0;
#X connect 22 3 9 0;
#X connect 22 4 10 0;
#X connect 22 5 17 0;
#X connect 22 6 0 0;
#X connect 22 7 2 0;
#X connect 22 8 3 0;
#X connect 22 9 27 0;
#X connect 25 0 24 0;
#X connect 27 0 26 0;
#X restore 773 58 pd init;
#X obj 575 199 +bubbler~;
#X obj 590 166 r bub;
#X floatatom 837 312 5 0 100 0 - bub_dryvol -;
#X floatatom 837 365 5 0 100 0 - bub_delvol -;
#X obj 224 430 hradio 15 1 0 3 empty empty empty 0 -8 0 10 -262144
-1 -1 0;
#X obj 586 636 outlet~;
#X obj 573 35 inlet~;
#X obj 165 40 inlet Xmano1;
#X obj 166 93 * 200;
#X obj 388 75 * 100;
#X obj 387 22 inlet Ymano1;
#X obj 612 302 *~ 2;
#X connect 0 0 3 0;
#X connect 1 0 34 0;
#X connect 2 0 4 0;
#X connect 3 0 9 0;
#X connect 4 0 8 0;
#X connect 5 0 19 0;
#X connect 6 0 10 0;
#X connect 7 0 10 0;
#X connect 11 0 15 0;
#X connect 12 0 21 0;
#X connect 14 0 20 0;
#X connect 15 0 13 0;
#X connect 16 0 22 0;
#X connect 18 0 17 0;
#X connect 19 0 9 0;
#X connect 20 0 13 0;
#X connect 21 0 13 0;
#X connect 22 0 17 0;
#X connect 23 0 17 0;
#X connect 24 0 0 0;
#X connect 25 0 35 0;
#X connect 26 0 25 0;
#X connect 27 0 5 0;
#X connect 28 0 1 0;
#X connect 29 0 2 0;
#X connect 30 0 14 0;
#X connect 31 0 11 0;
#X connect 32 0 12 0;
#X connect 33 0 16 0;
#X connect 34 0 8 0;
#X connect 35 0 8 0;
#X connect 36 0 50 0;
#X connect 36 1 50 1;
#X connect 50 0 54 1;
#X connect 51 0 52 0;
#X connect 52 0 18 0;
#X connect 54 0 65 0;
#X connect 55 0 54 0;
#X connect 58 0 23 0;
#X connect 60 0 54 0;
#X connect 61 0 62 0;
#X connect 62 0 11 0;
#X connect 63 0 5 0;
#X connect 64 0 63 0;
#X connect 65 0 59 0;
#X restore 200 393 pd granulador;
#N canvas 164 155 722 524 stereo 0;
#X obj 450 222 sin;
#X obj 325 222 cos;
#X floatatom 393 182 8 0 90 0 - - -;
#X text 392 8 ángulo en grados (0-90);
#X text 493 182 ángulo en radianes (0-pi/2);
#X obj 89 215 *~;
#X obj 172 215 *~;
#X floatatom 326 255 4 0 90 0 - - -;
#X floatatom 451 255 4 0 90 0 - - -;
#X obj 393 137 * 0.0174533;
#X obj 326 310 vsl 15 100 0 1 0 0 empty empty empty 0 -9 0 10 -262144
-1 -1 7000 1;
#X obj 451 310 vsl 15 100 0 1 0 0 empty empty empty 0 -9 0 10 -262144
-1 -1 7000 1;
#X text 511 135 (angulo*2PI)/360;
#X obj 94 421 outlet~;
#X obj 197 421 outlet~;
#X obj 110 53 inlet~;
#X obj 393 38 inlet;
#X obj 393 94 * 90;
#X msg 333 94 0.5;
#X obj 328 69 loadbang;
#X connect 0 0 8 0;
#X connect 1 0 7 0;
#X connect 2 0 0 0;
#X connect 2 0 1 0;
#X connect 5 0 13 0;
#X connect 6 0 14 0;
#X connect 7 0 5 1;
#X connect 7 0 10 0;
#X connect 8 0 6 1;
#X connect 8 0 11 0;
#X connect 9 0 2 0;
#X connect 15 0 5 0;
#X connect 15 0 6 0;
#X connect 16 0 17 0;
#X connect 17 0 9 0;
#X connect 18 0 17 0;
#X connect 19 0 18 0;
#X restore 334 411 pd stereo;
#X obj 201 451 s~ FiguraProEscena2Izq;
#X obj 345 450 s~ FiguraProEscena2Der;
#X obj 359 579 *~;
#X obj 215 523 r~ FiguraProEscena2Izq;
#X obj 368 525 r~ FiguraProEscena2Der;
#X obj 260 642 outlet~ FIGURAIzq;
#X obj 369 642 outlet~ FIGURADer;
#X msg 441 167 FONDO-ESCENA2/FONDOESCENA2.wav;
#X msg 14 216 FIGURA-ESCENA2/FIGURAESCENA2-1.wav;
#X obj 565 205 sfplayer-mpps;
#X obj 171 259 sfplayer-mpps;
#X obj 686 121 loadbang;
#X obj 684 148 t b b;
#X msg 705 179 1;
#X obj 241 154 loadbang;
#X obj 239 181 t b b;
#X msg 260 212 1;
#X connect 3 0 7 0;
#X connect 4 0 5 1;
#X connect 4 0 6 1;
#X connect 4 0 35 1;
#X connect 5 0 38 0;
#X connect 6 0 2 0;
#X connect 7 0 17 0;
#X connect 9 0 20 0;
#X connect 10 0 22 0;
#X connect 11 0 21 0;
#X connect 18 0 19 0;
#X connect 25 0 31 2;
#X connect 26 0 31 0;
#X connect 26 0 32 1;
#X connect 27 0 31 1;
#X connect 29 0 4 0;
#X connect 30 0 6 0;
#X connect 31 0 32 0;
#X connect 32 0 33 0;
#X connect 32 1 34 0;
#X connect 35 0 39 0;
#X connect 36 0 5 0;
#X connect 37 0 35 0;
#X connect 40 0 42 0;
#X connect 41 0 43 0;
#X connect 42 0 24 0;
#X connect 43 0 23 0;
#X connect 44 0 45 0;
#X connect 45 0 46 0;
#X connect 45 1 40 0;
#X connect 46 0 42 1;
#X connect 47 0 48 0;
#X connect 48 0 49 0;
#X connect 48 1 41 0;
#X connect 49 0 43 1;
#X restore 386 403 pd ESCENA2 . . . . . . . . . . . . . . . . . . .
;
#X obj 654 495 r~ ESCENA0-FONDO;
#X obj 760 494 r~ ESCENA2-FONDO;
#X obj 421 696 dac~ 1 2;
#X obj 677 557 multiplex~ 1 2 3 4;
#X obj 386 438 s~ ESCENA2-FIGURAIzq;
#X obj 528 436 s~ ESCENA2-FIGURADer;
#X obj 404 565 multiplex~ 1 2 3 4;
#X obj 207 504 r~ ESCENA2-FIGURAIzq;
#X obj 487 502 r~ ESCENA2-FIGURADer;
#X obj -67 439 s~ ESCENA0-FIGURAIzq;
#X obj 64 440 s~ ESCENA0-FIGURADer;
#X obj 78 506 r~ ESCENA0-FIGURAIzq;
#X obj 356 504 r~ ESCENA0-FIGURADer;
#N canvas 126 166 450 300 RuteadoEscenas-Xmano1 0;
#X obj 38 83 demultiplex 1 2 3 4;
#X obj 149 45 r escena;
#X obj 38 45 r Xmano1;
#X floatatom 44 65 5 0 0 0 - - -;
#X floatatom 157 65 5 0 0 0 - - -;
#X obj 35 124 s Xmano1-escena1;
#X obj -68 123 s Xmano1-escena0;
#X obj 141 124 s Xmano1-escena2;
#X obj 247 124 s Xmano1-escena3;
#X connect 0 0 6 0;
#X connect 0 1 5 0;
#X connect 0 2 7 0;
#X connect 0 3 8 0;
#X connect 1 0 0 1;
#X connect 1 0 4 0;
#X connect 2 0 0 0;
#X connect 2 0 3 0;
#X restore -48 260 pd RuteadoEscenas-Xmano1;
#N canvas 546 407 450 300 RuteadoEscenas-Ymano1 0;
#X obj 28 70 demultiplex 1 2 3 4;
#X obj 139 32 r escena;
#X obj 28 32 r Ymano1;
#X floatatom 34 52 5 0 0 0 - - -;
#X floatatom 145 51 5 0 0 0 - - -;
#X obj 70 109 s Ymano1-escena1;
#X obj -33 110 s Ymano1-escena0;
#X obj 173 108 s Ymano1-escena2;
#X obj 277 107 s Ymano1-escena3;
#X connect 0 0 6 0;
#X connect 0 1 5 0;
#X connect 0 2 7 0;
#X connect 0 3 8 0;
#X connect 1 0 0 1;
#X connect 1 0 4 0;
#X connect 2 0 0 0;
#X connect 2 0 3 0;
#X restore 106 259 pd RuteadoEscenas-Ymano1;
#N canvas 546 407 450 300 RuteadoEscenas-Xmano2 0;
#X obj 97 77 demultiplex 1 2 3 4;
#X obj 208 39 r escena;
#X obj 97 39 r Xmano2;
#X floatatom 104 59 5 0 0 0 - - -;
#X floatatom 213 59 5 0 0 0 - - -;
#X obj 119 103 s Xmano2-escena1;
#X obj 16 103 s Xmano2-escena0;
#X obj 223 103 s Xmano2-escena2;
#X obj 326 102 s Xmano2-escena3;
#X connect 0 0 6 0;
#X connect 0 1 5 0;
#X connect 0 2 7 0;
#X connect 0 3 8 0;
#X connect 1 0 0 1;
#X connect 1 0 4 0;
#X connect 2 0 0 0;
#X connect 2 0 3 0;
#X restore 259 258 pd RuteadoEscenas-Xmano2;
#N canvas 388 185 450 300 RuteadoEscenas-Ymano2 0;
#X obj -5698 82 demultiplex 1 2 3 4;
#X obj -5587 44 r escena;
#X obj -5698 44 r Ymano2;
#X floatatom -5690 63 5 0 0 0 - - -;
#X floatatom -5579 64 5 0 0 0 - - -;
#X obj -5774 118 s Ymano2-escena1;
#X obj -5670 118 s Ymano2-escena1;
#X obj -5565 117 s Ymano2-escena1;
#X obj -5461 116 s Ymano2-escena1;
#X connect 0 0 5 0;
#X connect 0 1 6 0;
#X connect 0 2 7 0;
#X connect 0 3 8 0;
#X connect 1 0 0 1;
#X connect 1 0 4 0;
#X connect 2 0 0 0;
#X connect 2 0 3 0;
#X restore 412 257 pd RuteadoEscenas-Ymano2;
#X obj 814 1 loadbang;
#X msg 814 33 \; pd dsp 1;
#X obj 66 7 import mrpeach;
#X obj -60 7 udpreceive 9997;
#N canvas 161 71 1145 666 conexiones-desde-hp 0;
#X obj 50 40 unpackOSC;
#X obj 196 129 nbx 1 20 -1e+37 1e+37 0 0 empty empty Usuario 0 -10
0 20 -260097 -1 -1 1 256;
#X obj 291 129 nbx 1 20 -1e+37 1e+37 0 0 empty empty Mano1 0 -10 0
20 -260097 -1 -1 0 256;
#X obj 355 128 nbx 1 20 -1e+37 1e+37 0 0 empty empty Mano2 0 -10 0
20 -260097 -1 -1 0 256;
#X obj 422 129 nbx 5 20 -1e+37 1e+37 0 0 empty empty Mano1-x 0 -10
0 20 -260097 -1 -1 0 256;
#X obj 532 129 nbx 5 20 -1e+37 1e+37 0 0 empty empty Mano1-y 0 -10
0 20 -260097 -1 -1 0 256;
#X obj 638 128 nbx 5 20 -1e+37 1e+37 0 0 empty empty Mano2-x 0 -10
0 20 -260097 -1 -1 0 256;
#X obj 753 128 nbx 5 20 -1e+37 1e+37 0 0 empty empty Mano2-y 0 -10
0 20 -260097 -1 -1 0 256;
#X obj 117 129 nbx 1 20 -1e+37 1e+37 0 0 empty empty Escena 0 -10 0
20 -260097 -1 -1 0 256;
#X obj 424 436 udpsend;
#X msg 481 400 connect localhost 9001;
#X obj 495 368 packOSC;
#X msg 376 261 send /hand1x \$1;
#X msg 485 261 send /hand1y \$1;
#X obj 249 61 routeOSC /usuario /mano1 /mano2 /mano1x /mano1y /mano2x
/mano2y /escena /conectar;
#X obj 51 -9 inlet;
#X obj 88 745 s escena;
#X obj 641 217 s Xmano2;
#X obj 288 497 s mano1;
#X obj 376 498 s mano2;
#X obj 429 210 s Xmano1;
#X obj 544 203 s Ymano1;
#X obj 759 210 s Ymano2;
#X msg 590 260 send /hand2x \$1;
#X msg 697 261 send /hand2y \$1;
#X msg 202 399 send /escena \$1;
#X obj 380 305 spigot;
#X obj 486 307 spigot;
#X obj 591 310 spigot;
#X obj 694 306 spigot;
#X msg 262 219 send /gesto \$1;
#X obj 301 194 ||;
#X obj 341 167 t b a;
#X floatatom 224 208 5 0 0 0 - - -;
#X obj 146 192 r VIVO;
#X msg 146 243 send /audio \$1;
#X msg 262 258 send /usuario \$1;
#X floatatom 108 503 5 0 0 0 - - -;
#X floatatom 217 596 5 0 0 0 - - -;
#X obj 159 524 moses 3;
#X obj 242 618 bng 15 250 50 0 empty empty empty 17 7 0 10 -262144
-1 -1;
#X obj 219 562 int;
#X obj 223 534 t b a;
#X obj 177 546 bng 15 250 50 0 empty empty empty 17 7 0 10 -262144
-1 -1;
#X floatatom 199 666 5 0 0 0 - - -;
#X obj 121 696 multiplex 0 1;
#X floatatom 88 718 5 0 0 0 - - -;
#X obj 201 644 r VIVO;
#N canvas 779 256 450 300 rescale 0;
#X obj 51 111 expr if($f1<0 \, 0 \, $f1) \;;
#X obj 52 85 expr if($f1>1 \, 1 \, $f1) \;;
#X obj 50 23 inlet;
#X obj 51 140 outlet;
#X obj 52 50 maxlib/scale 0 1 -2 3;
#X connect 0 0 3 0;
#X connect 1 0 0 0;
#X connect 2 0 4 0;
#X connect 4 0 1 0;
#X restore 422 166 pd rescale;
#N canvas 779 256 450 300 rescale 0;
#X obj 51 111 expr if($f1<0 \, 0 \, $f1) \;;
#X obj 52 85 expr if($f1>1 \, 1 \, $f1) \;;
#X obj 50 23 inlet;
#X obj 51 140 outlet;
#X obj 52 50 maxlib/scale 0 1 -2 3;
#X connect 0 0 3 0;
#X connect 1 0 0 0;
#X connect 2 0 4 0;
#X connect 4 0 1 0;
#X restore 543 169 pd rescale;
#N canvas 779 256 450 300 rescale 0;
#X obj 52 50 maxlib/scale 0 1 -2 3;
#X obj 51 111 expr if($f1<0 \, 0 \, $f1) \;;
#X obj 52 85 expr if($f1>1 \, 1 \, $f1) \;;
#X obj 50 23 inlet;
#X obj 51 140 outlet;
#X connect 0 0 2 0;
#X connect 1 0 4 0;
#X connect 2 0 1 0;
#X connect 3 0 0 0;
#X restore 650 173 pd rescale;
#N canvas 779 256 450 300 rescale 0;
#X obj 52 50 maxlib/scale 0 1 -2 3;
#X obj 51 111 expr if($f1<0 \, 0 \, $f1) \;;
#X obj 52 85 expr if($f1>1 \, 1 \, $f1) \;;
#X obj 50 23 inlet;
#X obj 51 140 outlet;
#X connect 0 0 2 0;
#X connect 1 0 4 0;
#X connect 2 0 1 0;
#X connect 3 0 0 0;
#X restore 760 173 pd rescale;
#X obj 335 581 expr if($f1==3 \, 0 \, $f1);
#X floatatom 346 621 5 0 0 0 - - -;
#X floatatom 346 557 5 0 0 0 - - -;
#X obj 726 34 inlet;
#X connect 0 0 14 0;
#X connect 1 0 26 1;
#X connect 1 0 27 1;
#X connect 1 0 28 1;
#X connect 1 0 29 1;
#X connect 1 0 18 0;
#X connect 1 0 36 0;
#X connect 2 0 31 0;
#X connect 3 0 32 0;
#X connect 4 0 48 0;
#X connect 5 0 49 0;
#X connect 6 0 50 0;
#X connect 7 0 51 0;
#X connect 8 0 37 0;
#X connect 10 0 9 0;
#X connect 11 0 9 0;
#X connect 12 0 26 0;
#X connect 13 0 27 0;
#X connect 14 0 1 0;
#X connect 14 1 2 0;
#X connect 14 2 3 0;
#X connect 14 3 4 0;
#X connect 14 4 5 0;
#X connect 14 5 6 0;
#X connect 14 6 7 0;
#X connect 14 7 8 0;
#X connect 14 8 10 0;
#X connect 15 0 0 0;
#X connect 23 0 28 0;
#X connect 24 0 29 0;
#X connect 25 0 11 0;
#X connect 26 0 11 0;
#X connect 27 0 11 0;
#X connect 28 0 11 0;
#X connect 29 0 11 0;
#X connect 30 0 11 0;
#X connect 31 0 30 0;
#X connect 31 0 33 0;
#X connect 32 0 31 0;
#X connect 32 1 31 1;
#X connect 34 0 35 0;
#X connect 35 0 11 0;
#X connect 36 0 11 0;
#X connect 37 0 45 1;
#X connect 37 0 54 0;
#X connect 38 0 40 0;
#X connect 39 0 42 0;
#X connect 39 1 43 0;
#X connect 41 0 38 0;
#X connect 42 0 41 0;
#X connect 42 1 41 1;
#X connect 43 0 41 0;
#X connect 44 0 45 2;
#X connect 45 0 46 0;
#X connect 46 0 16 0;
#X connect 46 0 25 0;
#X connect 47 0 44 0;
#X connect 48 0 20 0;
#X connect 48 0 12 0;
#X connect 49 0 21 0;
#X connect 49 0 13 0;
#X connect 50 0 23 0;
#X connect 50 0 17 0;
#X connect 51 0 22 0;
#X connect 51 0 24 0;
#X connect 52 0 45 0;
#X connect 52 0 53 0;
#X connect 54 0 52 0;
#X connect 55 0 10 0;
#X coords 0 -1 1 1 800 60 2 100 100;
#X restore -60 27 pd conexiones-desde-hp;
#X obj 799 288 r mano1;
#X obj 959 425 s~ ESCENA1-FONDO;
#X obj 868 495 r~ ESCENA1-FONDO;
#X obj 1116 276 r mano1;
#N canvas 134 22 1189 599 ESCENA3 0;
#X text 509 199 FONDO;
#X obj 675 419 outlet~ FONDO;
#X obj 88 14 inlet PresenciaMano;
#X obj 519 325 line~;
#X obj 675 376 *~;
#N canvas 802 140 450 300 change-play 0;
#X obj 53 84 change;
#X obj 53 106 route 1;
#X obj 53 141 bng 15 250 50 0 empty empty empty 17 7 0 10 -262144 -1
-1;
#X obj 87 125 bng 15 250 50 0 empty empty empty 17 7 0 10 -262144 -1
-1;
#X obj 87 147 delay 1000;
#X obj 52 53 inlet;
#X obj 70 192 outlet;
#X connect 0 0 1 0;
#X connect 1 0 2 0;
#X connect 1 1 3 0;
#X connect 2 0 6 0;
#X connect 3 0 4 0;
#X connect 4 0 6 0;
#X connect 5 0 0 0;
#X restore 29 55 pd change-play;
#N canvas 546 167 450 300 change-fade 0;
#X obj 36 53 route 1;
#X msg 14 118 1 1000;
#X msg 62 118 0 1000;
#X obj 41 32 change;
#X obj 29 83 bng 15 250 50 0 empty empty empty 17 7 0 10 -262144 -1
-1;
#X obj 71 82 bng 15 250 50 0 empty empty empty 17 7 0 10 -262144 -1
-1;
#X obj 41 8 inlet;
#X obj 38 217 outlet;
#X connect 0 0 4 0;
#X connect 0 1 5 0;
#X connect 1 0 7 0;
#X connect 2 0 7 0;
#X connect 3 0 0 0;
#X connect 4 0 1 0;
#X connect 5 0 2 0;
#X connect 6 0 3 0;
#X restore 145 53 pd change-fade;
#X obj 29 80 s PlayFondoEscena3;
#X obj 145 81 s fade-escena3;
#X obj 519 296 r fade-escena3;
#X obj 673 333 r~ FondoEscena3;
#X msg 441 167 FONDO-ESCENA3/FONDOESCENA3.wav;
#X obj 590 247 s~ FondoEscena3;
#X obj 565 205 sfplayer-mpps;
#X obj 642 112 loadbang;
#X obj 640 139 t b b;
#X msg 661 170 1;
#X connect 2 0 5 0;
#X connect 2 0 6 0;
#X connect 3 0 4 1;
#X connect 4 0 1 0;
#X connect 5 0 7 0;
#X connect 6 0 8 0;
#X connect 9 0 3 0;
#X connect 10 0 4 0;
#X connect 11 0 13 0;
#X connect 13 0 12 0;
#X connect 14 0 15 0;
#X connect 15 0 16 0;
#X connect 15 1 11 0;
#X connect 16 0 13 1;
#X restore 1115 393 pd ESCENA3 . . . . . . . . . . . . . . . . . .
.;
#N canvas 134 22 1189 599 ESCENA1 0;
#X text 509 199 FONDO;
#X obj 675 419 outlet~ FONDO;
#X obj 88 14 inlet PresenciaMano;
#X obj 519 325 line~;
#X obj 675 376 *~;
#N canvas 802 140 450 300 change-play 0;
#X obj 53 84 change;
#X obj 53 106 route 1;
#X obj 53 141 bng 15 250 50 0 empty empty empty 17 7 0 10 -262144 -1
-1;
#X obj 87 125 bng 15 250 50 0 empty empty empty 17 7 0 10 -262144 -1
-1;
#X obj 87 147 delay 1000;
#X obj 52 53 inlet;
#X obj 70 192 outlet;
#X connect 0 0 1 0;
#X connect 1 0 2 0;
#X connect 1 1 3 0;
#X connect 2 0 6 0;
#X connect 3 0 4 0;
#X connect 4 0 6 0;
#X connect 5 0 0 0;
#X restore 29 55 pd change-play;
#N canvas 546 167 450 300 change-fade 0;
#X obj 36 53 route 1;
#X msg 14 118 1 1000;
#X msg 62 118 0 1000;
#X obj 41 32 change;
#X obj 29 83 bng 15 250 50 0 empty empty empty 17 7 0 10 -262144 -1
-1;
#X obj 71 82 bng 15 250 50 0 empty empty empty 17 7 0 10 -262144 -1
-1;
#X obj 41 8 inlet;
#X obj 38 217 outlet;
#X connect 0 0 4 0;
#X connect 0 1 5 0;
#X connect 1 0 7 0;
#X connect 2 0 7 0;
#X connect 3 0 0 0;
#X connect 4 0 1 0;
#X connect 5 0 2 0;
#X connect 6 0 3 0;
#X restore 145 53 pd change-fade;
#X obj 29 80 s PlayFondoEscena1;
#X obj 145 81 s fade-escena1;
#X obj 590 247 s~ FondoEscena1;
#X msg 441 167 FONDO-ESCENA1/FONDOESCENA1.wav;
#X obj 519 296 r fade-escena1;
#X obj 673 333 r~ FondoEscena1;
#X obj 565 205 sfplayer-mpps;
#X obj 651 116 loadbang;
#X obj 649 143 t b b;
#X msg 670 174 1;
#X connect 2 0 5 0;
#X connect 2 0 6 0;
#X connect 3 0 4 1;
#X connect 4 0 1 0;
#X connect 5 0 7 0;
#X connect 6 0 8 0;
#X connect 10 0 13 0;
#X connect 11 0 3 0;
#X connect 12 0 4 0;
#X connect 13 0 9 0;
#X connect 14 0 15 0;
#X connect 15 0 16 0;
#X connect 15 1 10 0;
#X connect 16 0 13 1;
#X restore 799 397 pd ESCENA1 . . . . . . . . . . . . . . . . . . .
;
#X obj 1275 421 s~ ESCENA3-FONDO;
#X obj 972 495 r~ ESCENA3-FONDO;
#X obj -44 152 tgl 50 0 empty empty PARA_VIVO_DESACTIVAR_TOGGLE 0 -7
0 10 -260097 -1 -1 1 1;
#N canvas 212 147 1029 521 VIVO 0;
#X obj 13 -91 adc~ 1 2;
#X obj 105 -45 tgl 15 0 empty empty empty 17 7 0 10 -262144 -1 -1 0
1;
#X obj 121 -77 route 0;
#X obj 119 -103 r VIVO;
#X obj 40 23 *~;
#X obj 77 23 *~;
#X obj 22 339 phaser;
#X obj 337 86 delayEspectralFFT;
#X obj 26 90 bubbler;
#X obj 29 238 throw~ bubbler;
#X obj 13 505 throw~ phaser;
#N canvas 269 30 945 700 io 0;
#X obj 85 12 catch~ bubbler;
#X obj 287 12 catch~ phaser;
#X obj 465 12 catch~ tremolo;
#X obj 84 326 *~;
#X obj 116 280 line~;
#X msg 116 253 \$1 30;
#X obj 116 139 vsl 15 100 0 1 0 0 empty empty empty 0 -9 0 10 -262144
-1 -1 0 1;
#X obj 187 331 *~;
#X obj 219 280 line~;
#X msg 219 253 \$1 30;
#X obj 179 139 vsl 15 100 0 1 0 0 empty empty empty 0 -9 0 10 -262144
-1 -1 0 1;
#X obj 270 331 *~;
#X obj 302 280 line~;
#X msg 302 253 \$1 30;
#X obj 242 139 vsl 15 100 0 1 0 0 empty empty empty 0 -9 0 10 -262144
-1 -1 0 1;
#X obj 466 337 *~;
#X obj 498 282 line~;
#X msg 498 255 \$1 30;
#X text 106 115 bubbler;
#X text 172 115 delay;
#X text 234 115 phaser;
#X obj 346 162 tgl 15 0 empty empty empty 17 7 0 10 -262144 -1 -1 0
1;
#X msg 346 193 \; pd dsp \$1;
#X obj 186 12 catch~ delayFFT;
#X obj 546 472 freeverb~;
#X msg 666 264 roomsize \$1;
#X msg 666 309 damping \$1;
#X msg 666 353 width \$1;
#X msg 666 397 wet \$1;
#X msg 666 441 dry \$1;
#X obj 678 418 hsl 60 18 0 1 0 1 empty empty dry 2 9 1 12 -225271 -1
-1 4800 0;
#X obj 678 374 hsl 60 18 0 1 0 1 empty empty wet 2 9 1 12 -225271 -1
-1 5900 0;
#X obj 678 330 hsl 60 18 0 1 0 1 empty empty width 2 9 1 12 -262131
-1 -1 5400 0;
#X obj 678 286 hsl 60 18 0 2 0 1 empty empty damping 2 9 1 12 -261689
-1 -1 5700 0;
#X obj 681 241 hsl 60 18 0.11 1.1 0 1 empty empty roomsize 2 9 1 12
-261689 -1 -1 2900 0;
#X floatatom 648 245 3 0 0 0 - - -;
#X floatatom 648 290 3 0 0 0 - - -;
#X floatatom 648 335 3 0 0 0 - - -;
#X floatatom 648 378 3 0 0 0 - - -;
#X floatatom 648 422 3 0 0 0 - - -;
#X obj 146 -88 ctlin;
#X floatatom 95 -51 5 0 0 0 - - -;
#X floatatom 156 -53 5 0 0 0 - - -;
#X obj 945 118 s~ mic1;
#X obj 996 117 s~ mic2;
#X obj 955 128 s~ mic1;
#X obj 1006 127 s~ mic2;
#X obj 965 138 s~ mic1;
#X obj 1016 137 s~ mic2;
#X obj 975 148 s~ mic1;
#X obj 1026 147 s~ mic2;
#X obj 945 118 s~ mic1;
#X obj 996 117 s~ mic2;
#X obj 379 4 r escena;
#X obj 254 67 demultiplex 0 1 2 3;
#X floatatom 393 35 5 0 0 0 - - -;
#X floatatom 267 -66 5 0 0 0 - - -;
#X obj 243 453 multiplex~ 1 2 3 4;
#X floatatom 189 415 5 0 0 0 - - -;
#X obj 231 562 dac~ 1 2;
#X obj 524 48 route 0 1 2 3;
#X obj 524 112 line;
#X obj 566 113 line;
#X obj 607 113 line;
#X obj 649 114 line;
#X msg 524 80 0 1000;
#X msg 566 81 0 1000;
#X msg 607 81 0 1000;
#X msg 649 82 0 1000;
#N canvas 164 155 722 524 stereo 0;
#X obj 450 222 sin;
#X obj 325 222 cos;
#X floatatom 393 182 8 0 90 0 - - -;
#X text 392 8 ángulo en grados (0-90);
#X text 493 182 ángulo en radianes (0-pi/2);
#X obj 89 215 *~;
#X obj 172 215 *~;
#X floatatom 326 255 4 0 90 0 - - -;
#X floatatom 451 255 4 0 90 0 - - -;
#X obj 393 137 * 0.0174533;
#X obj 326 310 vsl 15 100 0 1 0 0 empty empty empty 0 -9 0 10 -262144
-1 -1 0 1;
#X obj 451 310 vsl 15 100 0 1 0 0 empty empty empty 0 -9 0 10 -262144
-1 -1 0 1;
#X text 511 135 (angulo*2PI)/360;
#X obj 94 421 outlet~;
#X obj 197 421 outlet~;
#X obj 110 53 inlet~;
#X obj 393 38 inlet;
#X obj 393 94 * 90;
#X msg 274 54 loadbang;
#X msg 271 77 0.5;
#X connect 0 0 8 0;
#X connect 1 0 7 0;
#X connect 2 0 0 0;
#X connect 2 0 1 0;
#X connect 5 0 13 0;
#X connect 6 0 14 0;
#X connect 7 0 5 1;
#X connect 7 0 10 0;
#X connect 8 0 6 1;
#X connect 8 0 11 0;
#X connect 9 0 2 0;
#X connect 15 0 5 0;
#X connect 15 0 6 0;
#X connect 16 0 17 0;
#X connect 17 0 9 0;
#X connect 18 0 19 0;
#X connect 19 0 17 0;
#X restore 219 501 pd stereo;
#X obj 973 82 s~ limpio;
#X obj 983 92 s~ limpio;
#X obj 326 -31 expr (1 - $f1);
#X obj 434 -22 + 0.4;
#X obj 288 -11 catch~ down;
#X obj 307 482 r Xmano2;
#X obj 253 -95 r Ymano2;
#X connect 0 0 3 0;
#X connect 1 0 11 0;
#X connect 2 0 15 0;
#X connect 3 0 57 0;
#X connect 4 0 3 1;
#X connect 5 0 4 0;
#X connect 6 0 5 0;
#X connect 7 0 57 1;
#X connect 8 0 7 1;
#X connect 9 0 8 0;
#X connect 10 0 9 0;
#X connect 11 0 57 2;
#X connect 12 0 11 1;
#X connect 13 0 12 0;
#X connect 14 0 13 0;
#X connect 16 0 15 1;
#X connect 17 0 16 0;
#X connect 21 0 22 0;
#X connect 23 0 7 0;
#X connect 25 0 24 0;
#X connect 26 0 24 0;
#X connect 27 0 24 0;
#X connect 28 0 24 0;
#X connect 29 0 24 0;
#X connect 30 0 29 0;
#X connect 30 0 39 0;
#X connect 31 0 28 0;
#X connect 31 0 38 0;
#X connect 32 0 27 0;
#X connect 32 0 37 0;
#X connect 33 0 26 0;
#X connect 33 0 36 0;
#X connect 34 0 25 0;
#X connect 34 0 35 0;
#X connect 40 0 41 0;
#X connect 40 1 42 0;
#X connect 53 0 54 1;
#X connect 53 0 55 0;
#X connect 53 0 58 0;
#X connect 54 0 6 0;
#X connect 54 1 10 0;
#X connect 54 2 14 0;
#X connect 55 0 60 0;
#X connect 56 0 72 0;
#X connect 57 0 69 0;
#X connect 58 0 57 0;
#X connect 60 0 65 0;
#X connect 60 1 66 0;
#X connect 60 2 67 0;
#X connect 60 3 68 0;
#X connect 61 0 10 0;
#X connect 61 0 14 0;
#X connect 62 0 6 0;
#X connect 62 0 14 0;
#X connect 63 0 10 0;
#X connect 63 0 6 0;
#X connect 64 0 14 0;
#X connect 64 0 10 0;
#X connect 64 0 6 0;
#X connect 65 0 61 0;
#X connect 66 0 62 0;
#X connect 67 0 63 0;
#X connect 68 0 64 0;
#X connect 69 0 59 0;
#X connect 69 1 59 1;
#X connect 72 0 73 0;
#X connect 73 0 54 0;
#X connect 74 0 7 0;
#X connect 74 0 11 0;
#X connect 75 0 69 1;
#X connect 76 0 56 0;
#X coords 0 -1 1 1 350 150 2 100 100;
#X restore 583 373 pd io;
#X obj 337 242 throw~ delayFFT;
#X msg 193 -61 flauta.wav;
#X obj 930 45 bng 15 250 50 0 empty empty empty 17 7 0 10 -262144 -1
-1;
#X obj 1007 394 key;
#X floatatom 1005 421 5 0 0 0 - - -;
#X obj 1012 449 route 43;
#X msg 1011 503 \; pd dsp 0;
#X msg 1092 470 \; pd dsp 1;
#X obj 39 47 s~ input1;
#X obj 98 47 s~ input2;
#X obj 26 69 r~ input1;
#X obj 90 70 r~ input2;
#X obj 401 48 r~ input2;
#X obj 336 48 r~ input1;
#X obj 98 277 r~ input2;
#X obj 33 277 r~ input1;
#X obj 364 276 dac~;
#X obj 277 361 down;
#X obj 315 333 r~ input2;
#X obj 250 333 r~ input1;
#X obj 336 424 throw~ down;
#X obj 191 -22 sfplayer-mpps;
#X obj 199 3 sfplayer-mpps;
#X connect 0 0 4 0;
#X connect 0 1 5 0;
#X connect 1 0 4 1;
#X connect 1 0 5 1;
#X connect 2 0 1 0;
#X connect 3 0 2 0;
#X connect 4 0 20 0;
#X connect 5 0 21 0;
#X connect 6 0 10 0;
#X connect 7 0 12 0;
#X connect 8 0 9 0;
#X connect 13 0 33 0;
#X connect 14 0 7 1;
#X connect 15 0 16 0;
#X connect 16 0 17 0;
#X connect 17 0 18 0;
#X connect 17 1 19 0;
#X connect 22 0 8 0;
#X connect 23 0 8 0;
#X connect 24 0 7 0;
#X connect 25 0 7 0;
#X connect 26 0 6 0;
#X connect 27 0 6 0;
#X connect 29 0 32 0;
#X connect 30 0 29 0;
#X connect 31 0 29 0;
#X restore 122 178 pd VIVO;
#X obj -44 101 loadbang;
#X msg -44 120 1;
#X obj -44 213 s VIVO;
#X obj 487 615 r VIVO;
#X obj 495 665 *~;
#X obj 449 665 *~;
#X obj 398 662 *~;
#X obj 506 637 tgl 15 0 empty empty empty 17 7 0 10 -262144 -1 -1 1
1;
#X obj 738 10 bng 15 250 50 0 empty empty empty 17 7 0 10 -262144 -1
-1;
#X connect 0 0 55 0;
#X connect 1 0 2 0;
#X connect 1 0 0 0;
#X connect 1 0 20 0;
#X connect 1 0 23 0;
#X connect 3 0 26 0;
#X connect 3 1 27 0;
#X connect 3 2 9 0;
#X connect 4 0 3 0;
#X connect 5 0 3 1;
#X connect 6 0 3 2;
#X connect 7 0 3 4;
#X connect 8 0 3 3;
#X connect 10 0 16 0;
#X connect 11 0 16 1;
#X connect 12 0 16 2;
#X connect 13 0 16 3;
#X connect 14 0 16 4;
#X connect 16 0 21 0;
#X connect 16 1 22 0;
#X connect 16 2 15 0;
#X connect 17 0 20 0;
#X connect 18 0 20 2;
#X connect 20 0 53 0;
#X connect 23 0 54 0;
#X connect 24 0 0 2;
#X connect 25 0 23 2;
#X connect 28 0 0 0;
#X connect 29 0 23 0;
#X connect 34 0 35 0;
#X connect 37 0 38 0;
#X connect 39 0 44 0;
#X connect 41 0 20 1;
#X connect 42 0 43 0;
#X connect 43 0 45 0;
#X connect 44 0 40 0;
#X connect 46 0 20 3;
#X connect 47 0 51 0;
#X connect 49 0 50 0;
#X connect 50 0 47 0;
#X connect 52 0 53 1;
#X connect 52 0 54 1;
#X connect 52 0 55 1;
#X connect 52 0 56 0;
#X connect 53 0 19 0;
#X connect 53 0 19 1;
#X connect 54 0 19 1;
#X connect 55 0 19 0;
#X connect 57 0 38 1;
