#N canvas 201 24 1296 695 24;
#X obj 858 88 s time;
#X floatatom 842 373 9 0 0 2 Tiempo_de_Interpolacion - -;
#X obj 520 169 bng 40 250 50 0 empty empty empty 17 7 0 10 -262144
-1 -1;
#X text 566 166 Nuevos Delays;
#X obj 520 213 s randomdelay;
#X obj 287 532 output~;
#X obj 520 135 loadbang;
#X obj 706 27 loadbang;
#X msg 706 63 1000;
#X obj 287 455 sfplayer-mpps;
#X msg 287 281 nombre_del_archivo;
#N canvas 557 163 678 579 procesamiento 0;
#N canvas 0 22 450 300 io 0;
#X obj 194 74 inlet~;
#X obj 190 167 outlet~;
#X connect 0 0 1 0;
#X restore 53 480 pd io;
#X obj 73 396 *~;
#X obj 316 371 hsl 300 25 0 0.9 0 0 empty empty de_0_a_1 -2 -15 0 25
-262144 -1 -1 1256 1;
#X floatatom 313 409 5 0 0 0 - - -;
#N canvas 496 310 830 480 time 0;
#X obj 62 191 line~;
#X msg 62 154 \$1 20;
#X obj 62 230 outlet~;
#X obj 102 -112 random 1001;
#X obj 211 -71 r time;
#X obj 102 -18 pack 0 0;
#X obj 102 -154 r randomdelay;
#X connect 0 0 2 0;
#X connect 1 0 0 0;
#X connect 3 0 5 0;
#X connect 4 0 5 1;
#X connect 5 0 0 0;
#X connect 6 0 3 0;
#X coords 0 480 1 479 260 28 0;
#X restore 278 173 pd time;
#N canvas 0 22 830 480 time 0;
#X obj 62 191 line~;
#X msg 62 154 \$1 20;
#X obj 62 230 outlet~;
#X obj 102 -112 random 1001;
#X obj 211 -71 r time;
#X obj 102 -18 pack 0 0;
#X obj 102 -154 r randomdelay;
#X connect 0 0 2 0;
#X connect 1 0 0 0;
#X connect 3 0 5 0;
#X connect 4 0 5 1;
#X connect 5 0 0 0;
#X connect 6 0 3 0;
#X coords 0 480 1 479 260 28 0;
#X restore 278 207 pd time;
#N canvas 0 22 830 480 time 0;
#X obj 62 191 line~;
#X msg 62 154 \$1 20;
#X obj 62 230 outlet~;
#X obj 102 -112 random 1001;
#X obj 211 -71 r time;
#X obj 102 -18 pack 0 0;
#X obj 102 -154 r randomdelay;
#X connect 0 0 2 0;
#X connect 1 0 0 0;
#X connect 3 0 5 0;
#X connect 4 0 5 1;
#X connect 5 0 0 0;
#X connect 6 0 3 0;
#X coords 0 480 1 479 260 28 0;
#X restore 278 241 pd time;
#N canvas 0 22 830 480 time 0;
#X obj 62 191 line~;
#X msg 62 154 \$1 20;
#X obj 62 230 outlet~;
#X obj 102 -112 random 1001;
#X obj 211 -71 r time;
#X obj 102 -18 pack 0 0;
#X obj 102 -154 r randomdelay;
#X connect 0 0 2 0;
#X connect 1 0 0 0;
#X connect 3 0 5 0;
#X connect 4 0 5 1;
#X connect 5 0 0 0;
#X connect 6 0 3 0;
#X coords 0 480 1 479 260 28 0;
#X restore 278 275 pd time;
#X obj 426 259 loadbang;
#X msg 426 293 0;
#X obj 377 175 inlet;
#X obj 28 42 inlet~;
#X obj 44 521 outlet~;
#X obj 71 74 r~ feedback-MT;
#X obj 73 182 vd~ buffer1-MT;
#X obj 86 226 vd~ buffer1-MT;
#X obj 104 271 vd~ buffer1-MT;
#X obj 117 314 vd~ buffer1-MT;
#X obj 71 115 delwrite~ buffer1-MT 1000;
#X obj 73 435 send~ feedback-MT;
#X connect 0 0 12 0;
#X connect 1 0 19 0;
#X connect 2 0 1 1;
#X connect 2 0 3 0;
#X connect 4 0 14 0;
#X connect 5 0 15 0;
#X connect 6 0 16 0;
#X connect 7 0 17 0;
#X connect 8 0 9 0;
#X connect 9 0 2 0;
#X connect 10 0 2 0;
#X connect 11 0 18 0;
#X connect 13 0 18 0;
#X connect 14 0 0 0;
#X connect 14 0 1 0;
#X connect 15 0 1 0;
#X connect 15 0 0 0;
#X connect 16 0 1 0;
#X connect 16 0 0 0;
#X connect 17 0 1 0;
#X connect 17 0 0 0;
#X restore 287 487 pd procesamiento;
#X obj 197 72 tgl 15 0 empty empty empty 17 7 0 10 -262144 -1 -1 1
1;
#X obj 501 356 vsl 15 128 0 0.3 0 0 empty empty Feedback 0 -9 0 10
-262144 -1 -1 1600 1;
#X obj 841 214 vsl 15 128 10 5000 0 0 empty empty empty 0 -9 0 10 -262144
-1 -1 0 1;
#X obj 182 23 loadbang;
#X obj 501 271 r y-mano-izquierda 0.3;
#X obj 299 328 r presencia de mano;
#X obj 396 374 loadbang;
#X obj 209 191 metro \$1;
#X floatatom 329 163 5 0 0 0 - - -;
#X obj 289 89 random 1000;
#X obj 395 35 metro 500;
#X obj 308 126 r x-mano-derecha;
#X obj 58 384 inlet~;
#X obj 327 -40 inlet;
#X obj 838 -40 inlet;
#X obj 864 175 r x-mano-izquierda;
#X obj 498 -37 inlet;
#X obj 179 323 inlet;
#X connect 2 0 4 0;
#X connect 6 0 2 0;
#X connect 7 0 8 0;
#X connect 8 0 0 0;
#X connect 9 0 11 0;
#X connect 10 0 9 0;
#X connect 11 0 5 0;
#X connect 11 0 5 1;
#X connect 12 0 19 0;
#X connect 12 0 22 0;
#X connect 13 0 11 1;
#X connect 14 0 0 0;
#X connect 14 0 1 0;
#X connect 15 0 19 0;
#X connect 15 0 22 0;
#X connect 16 0 13 0;
#X connect 17 0 9 1;
#X connect 18 0 9 2;
#X connect 19 0 4 0;
#X connect 20 0 19 1;
#X connect 21 0 20 0;
#X connect 22 0 21 0;
#X connect 23 0 20 0;
#X connect 24 0 11 0;
#X connect 25 0 20 0;
#X connect 26 0 14 0;
#X connect 27 0 14 0;
#X connect 28 0 13 0;
#X connect 29 0 9 1;
#X coords 0 -1 1 1 85 60 1 100 100;
