#N canvas 136 33 1153 709 10;
#X obj 629 39 hsl 128 15 0 10 0 0 empty empty empty -2 -8 0 10 -262144
-1 -1 0 1;
#X obj 319 364 *~ 2;
#X obj 319 384 +~ 2;
#X obj 444 350 *~ 2;
#X obj 443 373 +~ 2;
#X obj 414 251 phasor~;
#X obj 318 294 cos~;
#X obj 444 326 cos~;
#X obj 628 135 hsl 128 15 0 3 0 0 empty empty empty -2 -8 0 10 -262144
-1 -1 0 1;
#X obj 443 549 *~ 0.8;
#X obj 320 491 *~ 0.8;
#X obj 632 307 hsl 128 15 -0.9 0.9 0 0 empty empty empty -2 -8 0 10
-262144 -1 -1 0 1;
#X floatatom 626 63 5 0 0 0 - - -;
#X floatatom 625 161 5 0 0 0 - - -;
#X floatatom 629 328 5 0 0 0 - - -;
#X text 477 251 LFO;
#N canvas 360 427 450 300 io 0;
#X obj 90 117 inlet~;
#X obj 90 190 outlet~;
#X connect 0 0 1 0;
#X restore 73 449 pd io;
#X text 87 386 audio de los delays;
#X text 769 35 Velocidad de LFO;
#X text 770 133 Profundidad del LFO;
#X text 772 307 Feedback de ambos lfo;
#X obj 320 518 s~ feedbackPhase1;
#X obj 443 574 s~ feedbackPhase2;
#X obj 158 198 r~ feedbackPhase1;
#X obj 157 258 r~ feedbackPhase2;
#X obj 625 186 s depth;
#X obj 354 334 r depth;
#X obj 489 327 r depth;
#X obj 629 349 s feedback;
#X obj 476 521 r feedback;
#X obj 353 462 r feedback;
#X obj 84 407 catch~ output;
#X obj 222 444 throw~ output;
#X obj 458 427 throw~ output;
#X obj 450 276 +~ 0.5;
#X obj 450 302 wrap~;
#X obj 461 87 r y mano derecha;
#X obj 614 269 r y mano izquierda;
#X obj 591 -4 r x mano derecha;
#X obj 714 -3 * 10;
#X obj 487 24 * 3;
#X obj 72 508 outlet~;
#X obj 414 -46 inlet Xmano1;
#X obj 507 -45 inlet Ymano1;
#X obj 626 -46 inlet Ymano2;
#X obj 79 24 inlet~;
#X obj 319 420 vd~ phase1-fluidos;
#X obj 158 224 delwrite~ phase1-fluidos 100;
#X obj 157 281 delwrite~ phase2-fluidos 100;
#X obj 443 399 vd~ phase2-fluidos;
#X connect 0 0 5 0;
#X connect 0 0 12 0;
#X connect 1 0 2 0;
#X connect 2 0 46 0;
#X connect 3 0 4 0;
#X connect 4 0 49 0;
#X connect 5 0 6 0;
#X connect 5 0 34 0;
#X connect 6 0 1 0;
#X connect 7 0 3 0;
#X connect 8 0 13 0;
#X connect 9 0 22 0;
#X connect 10 0 21 0;
#X connect 11 0 14 0;
#X connect 13 0 25 0;
#X connect 14 0 28 0;
#X connect 16 0 41 0;
#X connect 23 0 47 0;
#X connect 24 0 48 0;
#X connect 26 0 1 1;
#X connect 26 0 2 1;
#X connect 27 0 3 1;
#X connect 27 0 4 1;
#X connect 29 0 9 1;
#X connect 30 0 10 1;
#X connect 31 0 16 0;
#X connect 34 0 35 0;
#X connect 35 0 7 0;
#X connect 36 0 8 0;
#X connect 37 0 11 0;
#X connect 38 0 0 0;
#X connect 39 0 0 0;
#X connect 40 0 8 0;
#X connect 42 0 39 0;
#X connect 43 0 40 0;
#X connect 44 0 11 0;
#X connect 45 0 16 0;
#X connect 45 0 47 0;
#X connect 45 0 48 0;
#X connect 46 0 10 0;
#X connect 46 0 32 0;
#X connect 49 0 9 0;
#X connect 49 0 33 0;
#X coords 0 709 1 708 85 60 0;
