#N canvas 189 74 1280 648 10;
#X obj 112 127 hsl 128 15 0 10 0 1 empty empty empty -2 -8 0 10 -262144
-1 -1 3760 1;
#X obj 694 136 *~ 2;
#X obj 694 156 +~ 2;
#X obj 819 122 *~ 2;
#X obj 818 145 +~ 2;
#X obj 68 19 delwrite~ phase2 100;
#X obj 818 171 vd~ phase2;
#X obj 789 23 phasor~;
#X obj 693 66 cos~;
#X obj 819 98 cos~;
#X obj 112 176 hsl 128 15 0 3 0 1 empty empty empty -2 -8 0 10 -262144
-1 -1 12700 1;
#X obj 112 228 hsl 128 15 -0.9 0.9 0 1 empty empty empty -2 -8 0 10
-262144 -1 -1 2822 1;
#X obj 694 192 vd~ phase1;
#X obj 69 -38 delwrite~ phase1 100;
#X floatatom 109 144 5 0 0 0 - - #0-speed;
#X floatatom 109 194 5 0 0 0 - - #0-depth;
#X floatatom 109 246 5 0 0 0 - - #0-feedback;
#X obj 825 48 +~ 0.5;
#X obj 825 74 wrap~;
#X obj 577 238 throw~ \$0-output;
#X obj 833 199 throw~ \$0-output;
#X obj 100 340 catch~ \$0-output;
#X obj 99 378 outlet~;
#X obj 864 99 r \$0-depth;
#X obj 729 106 r \$0-depth;
#X obj 728 234 r \$0-feedback;
#X obj 851 293 r \$0-feedback;
#X obj 695 290 s~ \$0-feedbackPhase1;
#X obj 818 346 s~ \$0-feedbackPhase2;
#X obj 69 -64 r~ \$0-feedbackPhase1;
#X obj 68 -4 r~ \$0-feedbackPhase2;
#X obj 29 -93 inlet~;
#X obj 789 -29 r \$0-speed;
#X text 108 211 Feedback;
#X text 107 162 Profundidad;
#X text 109 112 Velocidad;
#X obj -276 110 * 10;
#X obj -246 159 * 3;
#X obj -119 209 maxlib/scale 0 1 -0.9 0.9;
#X obj -119 186 r Ymano2;
#X obj -276 80 r Xmano1;
#X obj -246 136 r Ymano1;
#X obj 23 256 loadbang;
#X msg 28 281 -0.5;
#X obj 695 263 *~ 0.5;
#X obj 818 321 *~ 0.5;
#X connect 0 0 14 0;
#X connect 1 0 2 0;
#X connect 2 0 12 0;
#X connect 3 0 4 0;
#X connect 4 0 6 0;
#X connect 6 0 20 0;
#X connect 6 0 45 0;
#X connect 7 0 8 0;
#X connect 7 0 17 0;
#X connect 8 0 1 0;
#X connect 9 0 3 0;
#X connect 10 0 15 0;
#X connect 11 0 16 0;
#X connect 12 0 19 0;
#X connect 12 0 44 0;
#X connect 17 0 18 0;
#X connect 18 0 9 0;
#X connect 21 0 22 0;
#X connect 23 0 3 1;
#X connect 23 0 4 1;
#X connect 24 0 1 1;
#X connect 24 0 2 1;
#X connect 25 0 44 1;
#X connect 26 0 45 1;
#X connect 29 0 13 0;
#X connect 30 0 5 0;
#X connect 31 0 13 0;
#X connect 31 0 5 0;
#X connect 32 0 7 0;
#X connect 36 0 0 0;
#X connect 37 0 10 0;
#X connect 39 0 38 0;
#X connect 40 0 36 0;
#X connect 41 0 37 0;
#X connect 42 0 43 0;
#X connect 43 0 11 0;
#X connect 44 0 27 0;
#X connect 45 0 28 0;
#X coords 0 -1 1 1 150 165 1 100 100;
