#N canvas 0 22 1280 648 10;
#X obj 470 109 osc~;
#X obj 471 175 *~;
#X obj 471 226 clip~ -1 1;
#X obj 363 335 *~;
#X obj 110 177 hsl 128 15 1 20 1 1 empty empty empty -2 -8 0 10 -262144
-1 -1 0 1;
#X obj 111 128 hsl 128 15 0.5 25 0 1 empty empty empty -2 -8 0 10 -262144
-1 -1 0 1;
#X obj 471 309 *~;
#X obj 471 338 +~;
#X obj 110 227 hsl 128 15 0 0.5 0 1 empty empty empty -2 -8 0 10 -262144
-1 -1 0 1;
#X floatatom 107 246 5 0 0 0 - - #0-profundidad;
#X obj 534 338 expr 1-$f1;
#X floatatom 534 360 5 0 0 0 - - -;
#X obj 362 71 inlet~;
#X obj 362 381 outlet~;
#X obj 523 270 r \$0-profundidad;
#X text 105 111 Velocidad;
#X text 104 162 Cuadradez;
#X floatatom 108 146 5 0 0 0 - - #0-speed;
#X floatatom 107 196 5 0 0 0 - - #0-cuadrada;
#X obj 486 151 r \$0-cuadrada;
#X obj 470 58 r \$0-speed;
#X text 106 212 Profundidad;
#X obj -124 -13 ctlin;
#X obj -138 51 pack 0 0;
#X obj -135 89 list-rev;
#X obj -186 20 / 127;
#X floatatom -50 31 5 0 0 0 - - -;
#X obj -196 192 maxlib/scale 0 1 0.5 25;
#X obj -133 120 route 84 85 86;
#X obj -78 282 maxlib/scale 0 1 1 20;
#X obj -62 323 maxlib/scale 0 1 0 0.5;
#X connect 0 0 1 0;
#X connect 1 0 2 0;
#X connect 2 0 6 0;
#X connect 3 0 13 0;
#X connect 4 0 18 0;
#X connect 4 0 1 1;
#X connect 5 0 17 0;
#X connect 5 0 0 0;
#X connect 6 0 7 0;
#X connect 7 0 3 1;
#X connect 8 0 9 0;
#X connect 8 0 6 1;
#X connect 8 0 10 0;
#X connect 10 0 7 1;
#X connect 10 0 11 0;
#X connect 12 0 3 0;
#X connect 14 0 6 1;
#X connect 14 0 10 0;
#X connect 19 0 1 1;
#X connect 20 0 0 0;
#X connect 22 0 25 0;
#X connect 22 1 23 1;
#X connect 22 1 26 0;
#X connect 23 0 24 0;
#X connect 24 0 28 0;
#X connect 25 0 23 0;
#X connect 27 0 5 0;
#X connect 28 0 27 0;
#X connect 28 1 29 0;
#X connect 28 2 30 0;
#X connect 29 0 4 0;
#X connect 30 0 8 0;
#X coords 0 -1 1 1 150 165 1 100 100;
